<svg width="258" height="253" viewBox="0 0 258 253" fill="none" xmlns="http://www.w3.org/2000/svg">
<rect width="258" height="253" fill="white"/>
<ellipse cx="129" cy="126.5" rx="129" ry="126.5" fill="white"/>
<path d="M87.2 75.8C95.2 72.7333 102.733 71.2 109.8 71.2C113.667 71.2 117.267 71.8 120.6 73C124.067 74.0667 127 75.8 129.4 78.2C135.133 73.5333 141.267 71.2 147.8 71.2C151 71.2 154 71.8 156.8 73C159.733 74.2 162.267 76 164.4 78.4C166.667 80.8 168.467 83.8 169.8 87.4C171.133 91 171.8 95.2 171.8 100V166H156.8V99.6C156.8 94.8 155.733 91.1333 153.6 88.6C151.467 86.0667 148.8 84.8 145.6 84.8C144 84.8 142.333 85.2 140.6 86C138.867 86.8 137.267 88.0667 135.8 89.8C136.6 92.8667 137 96.2667 137 100V130.2H122V99.8C122 95.1333 121.267 91.4667 119.8 88.8C118.333 86.1333 115.467 84.8 111.2 84.8C108.533 84.8 105.533 85.4 102.2 86.6V166H87.2V75.8Z" fill="black"/>
<path d="M79 192.6H179V196.6H79V192.6Z" fill="black"/>
</svg>
